# xmcd
#
# Track frame offsets: 
#        150
#        15087
#        32966
#        49552
#        64728
#        84070
#        103437
#        126535
#        142948
#        159409
#        178432
#        194562
#        210662
#        241568
#
# Disc length: 3512 seconds
#
# Revision: 0
# Processed by: cddbd v1.5.1PL0 Copyright (c) Steve Scherf et al.
# Submitted via: ExactAudioCopy v0.95a5
#
DISCID=bb0db60e
DTITLE=Jetsurfers - Five Years Down The Road
DYEAR=2004
DGENRE=Country
TTITLE0=Jetville
TTITLE1=Cattle Town
TTITLE2=Fireworks
TTITLE3=Wake Up And Smell The Diesel
TTITLE4=Muddy
TTITLE5=Skeleton Horses
TTITLE6=Yesterdays' Town
TTITLE7=Those Days
TTITLE8=Mama, You Been On My Mind
TTITLE9=Stranded
TTITLE10=White Freight Liner
TTITLE11=Hard Work
TTITLE12=Next On Kin - Live Version
TTITLE13=Jetlagged In Jetland
EXTD=
EXTT0=
EXTT1=
EXTT2=
EXTT3=
EXTT4=
EXTT5=
EXTT6=
EXTT7=
EXTT8=
EXTT9=
EXTT10=
EXTT11=
EXTT12=
EXTT13=
PLAYORDER=
